<svg width="217" height="54" viewBox="0 0 217 54" fill="none" xmlns="http://www.w3.org/2000/svg">
<path d="M20.5916 44.9645L22.7404 47.1134L33.6 36.2552C38.1853 31.6667 44.6547 23.2752 43.4667 22.0885L20.5916 44.9645Z" fill="#F7FF58"/>
<path d="M20.0124 44.3853L18.7733 43.1462L42.8973 19.0222C43.5813 19.7067 41.1462 23.2515 40.2978 24.1L20.0124 44.3853Z" fill="#F7FF58"/>
<path d="M18.1943 42.5671L16.2938 40.6662L43.7712 13.1888C44.8209 14.2386 43.3956 17.3666 41.4023 19.3591L18.1943 42.5671Z" fill="#F7FF58"/>
<path d="M15.7147 40.0871L14.5444 38.9169L43.6782 9.78308C44.3244 10.4293 43.3671 12.4346 41.9795 13.8217L15.7147 40.0871Z" fill="#F7FF58"/>
<path d="M13.9653 38.3378L12.684 37.0565L42.8537 6.88672C43.5613 7.59427 42.9377 9.36539 42.0217 10.2814L13.9653 38.3378Z" fill="#F7FF58"/>
<path d="M12.7196 16.9076C11.4832 18.144 12.2889 20.9556 13.8534 22.5191L19.9112 28.5774L22.1503 26.3383L12.7196 16.9076Z" fill="#F7FF58"/>
<path d="M9.75151 19.876C8.9164 20.7106 9.77373 22.9222 10.4808 23.6289L17.6702 30.8186L19.1813 29.3075L9.75151 19.876Z" fill="#F7FF58"/>
<path d="M7.51112 22.1169C6.90223 22.7263 7.65157 24.4632 7.94934 24.7609L15.8382 32.6507L16.9409 31.5481L7.51112 22.1169Z" fill="#F7FF58"/>
<path d="M4.24352 25.3835C3.35107 26.2764 4.24352 28.6178 5.13774 29.5107L12.0582 36.4307L13.6742 34.8147L4.24352 25.3835Z" fill="#F7FF58"/>
<path d="M5.6782 23.9493C5.28842 24.3387 6.90531 26.5871 7.29509 26.9765L14.4035 34.0853L15.1111 33.38L5.6782 23.9493Z" fill="#F7FF58"/>
<path d="M79.908 16.964H71.952V39.5H68.856V16.964H60.9V13.94H79.908V16.964ZM86.7165 13.94V24.632L86.2845 24.092C86.6685 22.724 87.4125 21.704 88.5165 21.032C89.6445 20.336 90.9405 19.988 92.4045 19.988C94.3725 19.988 95.9325 20.648 97.0845 21.968C98.2605 23.264 98.8485 25.016 98.8485 27.224V39.5H95.8245V28.304C95.8245 26.48 95.4885 25.124 94.8165 24.236C94.1445 23.324 93.1245 22.868 91.7565 22.868C90.2205 22.868 88.9965 23.348 88.0845 24.308C87.1725 25.244 86.7165 26.576 86.7165 28.304V39.5H83.6925V13.94H86.7165ZM106.571 20.42L106.715 25.424L106.427 25.136C106.667 23.504 107.159 22.316 107.903 21.572C108.671 20.804 109.775 20.42 111.215 20.42H113.087V23.084H111.215C110.255 23.084 109.451 23.276 108.803 23.66C108.179 24.044 107.711 24.608 107.399 25.352C107.087 26.096 106.931 27.02 106.931 28.124V39.5H103.907V20.42H106.571ZM115.376 29.96C115.376 27.968 115.736 26.216 116.456 24.704C117.176 23.192 118.196 22.028 119.516 21.212C120.836 20.396 122.372 19.988 124.124 19.988C125.588 19.988 126.92 20.324 128.12 20.996C129.344 21.668 130.328 22.724 131.072 24.164C131.84 25.58 132.272 27.368 132.368 29.528L132.404 30.896H118.58C118.724 32.84 119.276 34.352 120.236 35.432C121.196 36.512 122.492 37.052 124.124 37.052C125.156 37.052 126.092 36.764 126.932 36.188C127.796 35.612 128.444 34.832 128.876 33.848L132.116 34.1C131.564 35.876 130.556 37.292 129.092 38.348C127.628 39.404 125.972 39.932 124.124 39.932C122.372 39.932 120.836 39.524 119.516 38.708C118.196 37.892 117.176 36.728 116.456 35.216C115.736 33.704 115.376 31.952 115.376 29.96ZM129.092 28.232C128.852 26.36 128.276 25.004 127.364 24.164C126.476 23.3 125.396 22.868 124.124 22.868C122.612 22.868 121.388 23.336 120.452 24.272C119.516 25.208 118.916 26.528 118.652 28.232H129.092ZM136.301 26.036C136.685 24.188 137.573 22.724 138.965 21.644C140.357 20.54 142.073 19.988 144.113 19.988C146.561 19.988 148.445 20.684 149.765 22.076C151.109 23.468 151.781 25.436 151.781 27.98V35.648C151.781 36.056 151.877 36.356 152.069 36.548C152.261 36.74 152.549 36.836 152.933 36.836H153.725V39.5H152.429H151.961C151.001 39.428 150.233 39.176 149.657 38.744C149.081 38.288 148.793 37.556 148.793 36.548C148.337 37.508 147.581 38.312 146.525 38.96C145.493 39.608 144.269 39.932 142.853 39.932C140.885 39.932 139.241 39.44 137.921 38.456C136.625 37.472 135.977 36.152 135.977 34.496C135.977 33.248 136.265 32.252 136.841 31.508C137.417 30.764 138.209 30.2 139.217 29.816C140.225 29.432 141.545 29.084 143.177 28.772L148.757 27.656C148.733 26.048 148.337 24.848 147.569 24.056C146.801 23.264 145.649 22.868 144.113 22.868C142.913 22.868 141.917 23.168 141.125 23.768C140.333 24.344 139.793 25.184 139.505 26.288L136.301 26.036ZM139.145 34.496C139.145 35.312 139.493 35.984 140.189 36.512C140.885 37.016 141.905 37.268 143.249 37.268C144.305 37.244 145.253 36.992 146.093 36.512C146.933 36.008 147.593 35.264 148.073 34.28C148.577 33.272 148.829 32.048 148.829 30.608V30.356L144.329 31.148C144.113 31.172 143.897 31.208 143.681 31.256C142.601 31.448 141.761 31.64 141.161 31.832C140.561 32 140.069 32.3 139.685 32.732C139.325 33.14 139.145 33.728 139.145 34.496ZM170.265 13.94H173.289V39.5H170.553L170.445 36.764C169.893 37.748 169.077 38.528 167.997 39.104C166.917 39.656 165.717 39.932 164.397 39.932C162.765 39.932 161.337 39.524 160.113 38.708C158.889 37.892 157.953 36.74 157.305 35.252C156.657 33.74 156.333 31.976 156.333 29.96C156.333 27.944 156.657 26.192 157.305 24.704C157.953 23.192 158.889 22.028 160.113 21.212C161.337 20.396 162.765 19.988 164.397 19.988C165.669 19.988 166.833 20.252 167.889 20.78C168.945 21.308 169.737 22.028 170.265 22.94V13.94ZM169.869 33.74C170.325 32.66 170.553 31.4 170.553 29.96C170.553 28.496 170.325 27.224 169.869 26.144C169.413 25.04 168.765 24.2 167.925 23.624C167.109 23.024 166.137 22.724 165.009 22.724C163.329 22.724 161.985 23.384 160.977 24.704C159.993 26 159.501 27.752 159.501 29.96C159.501 32.144 159.993 33.872 160.977 35.144C161.985 36.416 163.329 37.052 165.009 37.052C166.137 37.052 167.109 36.764 167.925 36.188C168.765 35.612 169.413 34.796 169.869 33.74ZM181.281 20.42L181.389 25.28L181.029 24.884C181.365 23.252 182.085 22.028 183.189 21.212C184.317 20.396 185.661 19.988 187.221 19.988C189.309 19.988 190.905 20.66 192.009 22.004C193.113 23.348 193.665 25.088 193.665 27.224V39.5H190.641V28.088C190.641 26.288 190.317 24.932 189.669 24.02C189.021 23.108 187.989 22.652 186.573 22.652C185.037 22.652 183.813 23.132 182.901 24.092C181.989 25.028 181.533 26.36 181.533 28.088V39.5H178.509V20.42H181.281ZM197.712 29.96C197.712 27.968 198.072 26.216 198.792 24.704C199.512 23.192 200.532 22.028 201.852 21.212C203.172 20.396 204.708 19.988 206.46 19.988C207.924 19.988 209.256 20.324 210.456 20.996C211.68 21.668 212.664 22.724 213.408 24.164C214.176 25.58 214.608 27.368 214.704 29.528L214.74 30.896H200.916C201.06 32.84 201.612 34.352 202.572 35.432C203.532 36.512 204.828 37.052 206.46 37.052C207.492 37.052 208.428 36.764 209.268 36.188C210.132 35.612 210.78 34.832 211.212 33.848L214.452 34.1C213.9 35.876 212.892 37.292 211.428 38.348C209.964 39.404 208.308 39.932 206.46 39.932C204.708 39.932 203.172 39.524 201.852 38.708C200.532 37.892 199.512 36.728 198.792 35.216C198.072 33.704 197.712 31.952 197.712 29.96ZM211.428 28.232C211.188 26.36 210.612 25.004 209.7 24.164C208.812 23.3 207.732 22.868 206.46 22.868C204.948 22.868 203.724 23.336 202.788 24.272C201.852 25.208 201.252 26.528 200.988 28.232H211.428Z" fill="#F4F4F6"/>
</svg>
