<svg width="269" height="269" viewBox="0 0 269 269" fill="none" xmlns="http://www.w3.org/2000/svg">
<path d="M115.398 235.176L127.441 247.219L188.3 186.367C213.997 160.653 250.252 113.625 243.594 106.975L115.398 235.176Z" fill="#313638"/>
<path d="M112.153 231.93L105.209 224.986L240.404 89.7913C244.237 93.627 230.59 113.493 225.835 118.248L112.153 231.93Z" fill="#313638"/>
<path d="M101.963 221.741L91.313 211.088L245.301 57.1002C251.184 62.9833 243.196 80.5132 232.025 91.6792L101.963 221.741Z" fill="#313638"/>
<path d="M88.0676 207.842L81.5095 201.284L244.78 38.0137C248.402 41.6352 243.037 52.8734 235.26 60.647L88.0676 207.842Z" fill="#313638"/>
<path d="M78.2641 198.039L71.0833 190.858L240.16 21.7815C244.125 25.7468 240.63 35.6724 235.497 40.8058L78.2641 198.039Z" fill="#313638"/>
<path d="M71.2825 77.9403C64.3532 84.8695 68.869 100.626 77.6364 109.388L111.585 143.34L124.134 130.791L71.2825 77.9403Z" fill="#313638"/>
<path d="M54.6493 94.5759C49.9692 99.2535 54.7738 111.647 58.7366 115.608L99.0268 155.9L107.495 147.432L54.6493 94.5759Z" fill="#313638"/>
<path d="M42.0935 107.134C38.6812 110.549 42.8806 120.283 44.5494 121.952L88.76 166.167L94.9396 159.988L42.0935 107.134Z" fill="#313638"/>
<path d="M23.7816 125.441C18.7802 130.445 23.7816 143.566 28.793 148.57L67.5763 187.351L76.6326 178.295L23.7816 125.441Z" fill="#313638"/>
<path d="M31.8216 117.404C29.6373 119.585 38.6986 132.186 40.883 134.368L80.7199 174.207L84.6851 170.255L31.8216 117.404Z" fill="#313638"/>
</svg>
